<?xml version="1.0" encoding="utf-8" standalone="no"?>
<!DOCTYPE svg PUBLIC "-//W3C//DTD SVG 1.1//EN"
  "http://www.w3.org/Graphics/SVG/1.1/DTD/svg11.dtd">
<svg xmlns:xlink="http://www.w3.org/1999/xlink" width="273.6pt" height="216pt" viewBox="0 0 273.6 216" xmlns="http://www.w3.org/2000/svg" version="1.1" role="img" aria-labelledby="title desc">
<title id="title">Comparison between this study and prior LLM-based F1 results</title>
<desc id="desc">Grouped bar chart comparing this study and prior reported LLM-based F1 scores on Juliet and Devign.</desc>

 <defs>
  <style type="text/css">*{stroke-linejoin: round; stroke-linecap: butt}</style>
 </defs>
 <g id="figure_1">
  <g id="patch_1">
   <path d="M 0 216 
L 273.6 216 
L 273.6 0 
L 0 0 
z
" style="fill: #ffffff"/>
  </g>
  <g id="axes_1">
   <g id="patch_2">
    <path d="M 46.512 164.16 
L 268.128 164.16 
L 268.128 25.92 
L 46.512 25.92 
z
" style="fill: #ffffff"/>
   </g>
   <g id="matplotlib.axis_1">
    <g id="xtick_1">
     <g id="line2d_1"/>
     <g id="text_1">
      <text style="font-weight: 600; font-size: 10px; font-family: 'DejaVu Serif'; text-anchor: middle" x="102.831408" y="178.758438" transform="rotate(-0 102.831408 178.758438)">Juliet</text>
     </g>
    </g>
    <g id="xtick_2">
     <g id="line2d_2"/>
     <g id="text_2">
      <text style="font-weight: 600; font-size: 10px; font-family: 'DejaVu Serif'; text-anchor: middle" x="211.808592" y="178.758438" transform="rotate(-0 211.808592 178.758438)">Devign</text>
     </g>
    </g>
   </g>
   <g id="matplotlib.axis_2">
    <g id="ytick_1">
     <g id="line2d_3">
      <path d="M 46.512 164.16 
L 268.128 164.16 
" clip-path="url(#p4c3329b7a1)" style="fill: none; stroke-dasharray: 1.2,1.2; stroke-dashoffset: 0; stroke: #d0d0d0; stroke-width: 0.6"/>
     </g>
     <g id="line2d_4">
      <defs>
       <path id="m02890f0831" d="M 0 0 
L -3.5 0 
" style="stroke: #000000"/>
      </defs>
      <g>
       <use xlink:href="#m02890f0831" x="46.512" y="164.16" style="stroke: #000000"/>
      </g>
     </g>
     <g id="text_3">
      <text style="font-weight: 600; font-size: 10.5px; font-family: 'DejaVu Serif'; text-anchor: end" x="39.512" y="168.14918" transform="rotate(-0 39.512 168.14918)">0.0</text>
     </g>
    </g>
    <g id="ytick_2">
     <g id="line2d_5">
      <path d="M 46.512 137.828571 
L 268.128 137.828571 
" clip-path="url(#p4c3329b7a1)" style="fill: none; stroke-dasharray: 1.2,1.2; stroke-dashoffset: 0; stroke: #d0d0d0; stroke-width: 0.6"/>
     </g>
     <g id="line2d_6">
      <g>
       <use xlink:href="#m02890f0831" x="46.512" y="137.828571" style="stroke: #000000"/>
      </g>
     </g>
     <g id="text_4">
      <text style="font-weight: 600; font-size: 10.5px; font-family: 'DejaVu Serif'; text-anchor: end" x="39.512" y="141.817751" transform="rotate(-0 39.512 141.817751)">0.2</text>
     </g>
    </g>
    <g id="ytick_3">
     <g id="line2d_7">
      <path d="M 46.512 111.497143 
L 268.128 111.497143 
" clip-path="url(#p4c3329b7a1)" style="fill: none; stroke-dasharray: 1.2,1.2; stroke-dashoffset: 0; stroke: #d0d0d0; stroke-width: 0.6"/>
     </g>
     <g id="line2d_8">
      <g>
       <use xlink:href="#m02890f0831" x="46.512" y="111.497143" style="stroke: #000000"/>
      </g>
     </g>
     <g id="text_5">
      <text style="font-weight: 600; font-size: 10.5px; font-family: 'DejaVu Serif'; text-anchor: end" x="39.512" y="115.486323" transform="rotate(-0 39.512 115.486323)">0.4</text>
     </g>
    </g>
    <g id="ytick_4">
     <g id="line2d_9">
      <path d="M 46.512 85.165714 
L 268.128 85.165714 
" clip-path="url(#p4c3329b7a1)" style="fill: none; stroke-dasharray: 1.2,1.2; stroke-dashoffset: 0; stroke: #d0d0d0; stroke-width: 0.6"/>
     </g>
     <g id="line2d_10">
      <g>
       <use xlink:href="#m02890f0831" x="46.512" y="85.165714" style="stroke: #000000"/>
      </g>
     </g>
     <g id="text_6">
      <text style="font-weight: 600; font-size: 10.5px; font-family: 'DejaVu Serif'; text-anchor: end" x="39.512" y="89.154894" transform="rotate(-0 39.512 89.154894)">0.6</text>
     </g>
    </g>
    <g id="ytick_5">
     <g id="line2d_11">
      <path d="M 46.512 58.834286 
L 268.128 58.834286 
" clip-path="url(#p4c3329b7a1)" style="fill: none; stroke-dasharray: 1.2,1.2; stroke-dashoffset: 0; stroke: #d0d0d0; stroke-width: 0.6"/>
     </g>
     <g id="line2d_12">
      <g>
       <use xlink:href="#m02890f0831" x="46.512" y="58.834286" style="stroke: #000000"/>
      </g>
     </g>
     <g id="text_7">
      <text style="font-weight: 600; font-size: 10.5px; font-family: 'DejaVu Serif'; text-anchor: end" x="39.512" y="62.823465" transform="rotate(-0 39.512 62.823465)">0.8</text>
     </g>
    </g>
    <g id="ytick_6">
     <g id="line2d_13">
      <path d="M 46.512 32.502857 
L 268.128 32.502857 
" clip-path="url(#p4c3329b7a1)" style="fill: none; stroke-dasharray: 1.2,1.2; stroke-dashoffset: 0; stroke: #d0d0d0; stroke-width: 0.6"/>
     </g>
     <g id="line2d_14">
      <g>
       <use xlink:href="#m02890f0831" x="46.512" y="32.502857" style="stroke: #000000"/>
      </g>
     </g>
     <g id="text_8">
      <text style="font-weight: 600; font-size: 10.5px; font-family: 'DejaVu Serif'; text-anchor: end" x="39.512" y="36.492037" transform="rotate(-0 39.512 36.492037)">1.0</text>
     </g>
    </g>
    <g id="text_9">
     <text style="font-weight: 600; font-size: 11.5px; font-family: 'DejaVu Serif'; text-anchor: middle" x="14.853641" y="95.04" transform="rotate(-90 14.853641 95.04)">F1 score</text>
    </g>
   </g>
   <g id="patch_3">
    <path d="M 67.95871 164.16 
L 102.831408 164.16 
L 102.831408 55.200549 
L 67.95871 55.200549 
z
" clip-path="url(#p4c3329b7a1)" style="fill: url(#he49767f4e9); stroke: #000000; stroke-width: 1.1; stroke-linejoin: miter"/>
   </g>
   <g id="patch_4">
    <path d="M 176.935893 164.16 
L 211.808592 164.16 
L 211.808592 65.417143 
L 176.935893 65.417143 
z
" clip-path="url(#p4c3329b7a1)" style="fill: url(#he49767f4e9); stroke: #000000; stroke-width: 1.1; stroke-linejoin: miter"/>
   </g>
   <g id="patch_5">
    <path d="M 102.831408 164.16 
L 137.704107 164.16 
L 137.704107 72 
L 102.831408 72 
z
" clip-path="url(#p4c3329b7a1)" style="fill: url(#hb822b59dc9); stroke: #000000; stroke-width: 1.1; stroke-linejoin: miter"/>
   </g>
   <g id="patch_6">
    <path d="M 211.808592 164.16 
L 246.68129 164.16 
L 246.68129 69.853989 
L 211.808592 69.853989 
z
" clip-path="url(#p4c3329b7a1)" style="fill: url(#hb822b59dc9); stroke: #000000; stroke-width: 1.1; stroke-linejoin: miter"/>
   </g>
   <g id="patch_7">
    <path d="M 46.512 164.16 
L 46.512 25.92 
" style="fill: none; stroke: #000000; stroke-width: 1.2; stroke-linejoin: miter; stroke-linecap: square"/>
   </g>
   <g id="patch_8">
    <path d="M 46.512 164.16 
L 268.128 164.16 
" style="fill: none; stroke: #000000; stroke-width: 1.2; stroke-linejoin: miter; stroke-linecap: square"/>
   </g>
   <g id="text_10">
    <text style="font-weight: 600; font-size: 8.6px; font-family: 'DejaVu Serif'; text-anchor: middle" x="85.395059" y="48.412017" transform="rotate(-0 85.395059 48.412017)">0.8276</text>
   </g>
   <g id="text_11">
    <text style="font-weight: 600; font-size: 8.6px; font-family: 'DejaVu Serif'; text-anchor: middle" x="194.372242" y="58.628612" transform="rotate(-0 194.372242 58.628612)">0.7500</text>
   </g>
   <g id="text_12">
    <text style="font-weight: 600; font-size: 8.6px; font-family: 'DejaVu Serif'; text-anchor: middle" x="120.267758" y="65.211469" transform="rotate(-0 120.267758 65.211469)">0.7000</text>
   </g>
   <g id="text_13">
    <text style="font-weight: 600; font-size: 8.6px; font-family: 'DejaVu Serif'; text-anchor: middle" x="229.244941" y="63.065457" transform="rotate(-0 229.244941 63.065457)">0.7163</text>
   </g>
   <g id="legend_1">
    <g id="patch_9">
     <path d="M 83.587031 37.097887 
L 97.867031 37.097887 
L 97.867031 31.217887 
L 83.587031 31.217887 
z
" style="fill: url(#he49767f4e9); stroke: #000000; stroke-width: 1.1; stroke-linejoin: miter"/>
    </g>
    <g id="text_14">
     <text style="font-weight: 600; font-size: 8.4px; font-family: 'DejaVu Serif'; text-anchor: start" x="104.587031" y="37.097887" transform="rotate(-0 104.587031 37.097887)">This study</text>
    </g>
    <g id="patch_10">
     <path d="M 163.339781 37.097887 
L 177.619781 37.097887 
L 177.619781 31.217887 
L 163.339781 31.217887 
z
" style="fill: url(#hb822b59dc9); stroke: #000000; stroke-width: 1.1; stroke-linejoin: miter"/>
    </g>
    <g id="text_15">
     <text style="font-weight: 600; font-size: 8.4px; font-family: 'DejaVu Serif'; text-anchor: start" x="184.339781" y="37.097887" transform="rotate(-0 184.339781 37.097887)">Prior best</text>
    </g>
   </g>
  </g>
 </g>
 <defs>
  <clipPath id="p4c3329b7a1">
   <rect x="46.512" y="25.92" width="221.616" height="138.24"/>
  </clipPath>
 </defs>
 <defs>
  <pattern id="he49767f4e9" patternUnits="userSpaceOnUse" x="0" y="0" width="72" height="72">
   <rect x="0" y="0" width="73" height="73" fill="#d9d9d9"/>
   <path d="M -36 36 
L 36 -36 
M -32 40 
L 40 -32 
M -28 44 
L 44 -28 
M -24 48 
L 48 -24 
M -20 52 
L 52 -20 
M -16 56 
L 56 -16 
M -12 60 
L 60 -12 
M -8 64 
L 64 -8 
M -4 68 
L 68 -4 
M 0 72 
L 72 0 
M 4 76 
L 76 4 
M 8 80 
L 80 8 
M 12 84 
L 84 12 
M 16 88 
L 88 16 
M 20 92 
L 92 20 
M 24 96 
L 96 24 
M 28 100 
L 100 28 
M 32 104 
L 104 32 
M 36 108 
L 108 36 
" style="fill: #000000; stroke: #000000; stroke-width: 0.85; stroke-linecap: butt; stroke-linejoin: miter"/>
  </pattern>
  <pattern id="hb822b59dc9" patternUnits="userSpaceOnUse" x="0" y="0" width="72" height="72">
   <rect x="0" y="0" width="73" height="73" fill="#ffffff"/>
   <path d="M -36 36 
L 36 -36 
M -30 42 
L 42 -30 
M -24 48 
L 48 -24 
M -18 54 
L 54 -18 
M -12 60 
L 60 -12 
M -6 66 
L 66 -6 
M 0 72 
L 72 0 
M 6 78 
L 78 6 
M 12 84 
L 84 12 
M 18 90 
L 90 18 
M 24 96 
L 96 24 
M 30 102 
L 102 30 
M 36 108 
L 108 36 
M -36 36 
L 36 108 
M -30 30 
L 42 102 
M -24 24 
L 48 96 
M -18 18 
L 54 90 
M -12 12 
L 60 84 
M -6 6 
L 66 78 
M 0 0 
L 72 72 
M 6 -6 
L 78 66 
M 12 -12 
L 84 60 
M 18 -18 
L 90 54 
M 24 -24 
L 96 48 
M 30 -30 
L 102 42 
M 36 -36 
L 108 36 
" style="fill: #000000; stroke: #000000; stroke-width: 0.85; stroke-linecap: butt; stroke-linejoin: miter"/>
  </pattern>
 </defs>
</svg>
